<?xml version="1.0" encoding="UTF-8"?>
<svg width="24px" height="24px" viewBox="0 0 24 24" version="1.1" xmlns="http://www.w3.org/2000/svg" xmlns:xlink="http://www.w3.org/1999/xlink">
    <title>settings_select</title>
    <g id="Page-1" stroke="none" stroke-width="1" fill="none" fill-rule="evenodd">
        <g id="settings_select" fill="#FF0000" fill-rule="nonzero">
            <path d="M12.3813,21.6353 C12.6479,21.6353 12.9043,21.6045 13.1812,21.584 L13.7656,22.7119 C13.8784,22.9375 14.104,23.0605 14.3911,23.0195 C14.6475,22.9683 14.8218,22.7837 14.8628,22.5068 L15.0371,21.2661 C15.5498,21.1328 16.0522,20.938 16.5342,20.7227 L17.457,21.5532 C17.6519,21.7378 17.8979,21.7788 18.1543,21.6353 C18.3799,21.5122 18.4722,21.2661 18.4209,20.9995 L18.1646,19.769 C18.5952,19.4717 19.0156,19.1333 19.395,18.7539 L20.5332,19.2358 C20.7896,19.3384 21.0356,19.2871 21.2305,19.0513 C21.4048,18.8667 21.4253,18.6001 21.2715,18.3745 L20.605,17.3081 C20.9126,16.8774 21.1587,16.416 21.3945,15.9238 L22.6558,15.9854 C22.9224,15.9956 23.1377,15.8521 23.23,15.5957 C23.312,15.3394 23.2402,15.0933 23.0249,14.9292 L22.0405,14.1499 C22.1738,13.6577 22.2764,13.1245 22.3276,12.5708 L23.5068,12.2017 C23.7734,12.1094 23.9272,11.9146 23.9272,11.6377 C23.9272,11.3711 23.7734,11.1763 23.5068,11.084 L22.3276,10.7046 C22.2764,10.1509 22.1738,9.63818 22.0405,9.13574 L23.0249,8.34619 C23.23,8.19238 23.312,7.95654 23.23,7.7002 C23.1377,7.44385 22.9224,7.30029 22.6558,7.31055 L21.3945,7.36182 C21.1587,6.86963 20.9126,6.4082 20.605,5.97754 L21.2715,4.91113 C21.415,4.6958 21.3945,4.4292 21.2305,4.24463 C21.0356,4.00879 20.7896,3.94727 20.5332,4.06006 L19.395,4.52148 C19.0156,4.1626 18.5952,3.81396 18.1646,3.5166 L18.4209,2.29639 C18.4722,2.01953 18.3799,1.77344 18.1543,1.65039 C17.8979,1.51709 17.6519,1.5376 17.457,1.74268 L16.5342,2.55273 C16.0522,2.3374 15.5498,2.16309 15.0371,2.01953 L14.8628,0.778809 C14.8218,0.512207 14.6372,0.317383 14.3809,0.276367 C14.104,0.235352 13.8784,0.348145 13.7656,0.57373 L13.1812,1.70166 C12.9043,1.68115 12.6479,1.66064 12.3813,1.66064 C12.1045,1.66064 11.8584,1.68115 11.5815,1.70166 L10.9868,0.57373 C10.874,0.348145 10.6484,0.235352 10.3716,0.276367 C10.1152,0.317383 9.93066,0.512207 9.8999,0.778809 L9.71533,2.00928 C9.20264,2.16309 8.71045,2.3374 8.21826,2.55273 L7.29541,1.74268 C7.10059,1.5376 6.85449,1.51709 6.59814,1.65039 C6.37256,1.77344 6.28027,2.01953 6.33154,2.29639 L6.58789,3.5166 C6.16748,3.81396 5.73682,4.1626 5.35742,4.52148 L4.21924,4.06006 C3.96289,3.94727 3.72705,4.00879 3.53223,4.24463 C3.35791,4.4292 3.3374,4.6958 3.48096,4.90088 L4.14746,5.97754 C3.8501,6.4082 3.59375,6.86963 3.35791,7.36182 L2.10693,7.31055 C1.84033,7.30029 1.61475,7.44385 1.52246,7.7002 C1.44043,7.95654 1.51221,8.19238 1.72754,8.34619 L2.71191,9.13574 C2.57861,9.63818 2.47607,10.1509 2.44531,10.7046 L1.24561,11.084 C0.979004,11.166 0.835449,11.3608 0.835449,11.6377 C0.835449,11.9146 0.979004,12.1094 1.24561,12.2017 L2.44531,12.5811 C2.47607,13.1245 2.57861,13.6577 2.71191,14.1499 L1.72754,14.9292 C1.52246,15.0933 1.45068,15.3394 1.52246,15.5957 C1.61475,15.8521 1.84033,15.9956 2.10693,15.9854 L3.35791,15.9238 C3.59375,16.416 3.8501,16.8774 4.14746,17.3081 L3.48096,18.3745 C3.3374,18.6001 3.35791,18.8667 3.53223,19.0513 C3.72705,19.2871 3.96289,19.3384 4.21924,19.2358 L5.35742,18.7539 C5.73682,19.1333 6.16748,19.4717 6.58789,19.769 L6.33154,20.9995 C6.28027,21.2661 6.37256,21.5122 6.59814,21.6353 C6.85449,21.7788 7.10059,21.7378 7.29541,21.5532 L8.21826,20.7227 C8.71045,20.938 9.20264,21.1328 9.71533,21.2661 L9.8999,22.5068 C9.93066,22.7837 10.1152,22.9683 10.3716,23.0195 C10.6484,23.0605 10.874,22.9375 10.9868,22.7119 L11.5815,21.584 C11.8481,21.6045 12.1045,21.6353 12.3813,21.6353 Z M14.9551,10.9917 C14.4834,9.69971 13.5298,8.99219 12.3608,8.99219 C12.1763,8.99219 11.9814,9.0127 11.6431,9.08447 L8.7002,4.06006 C9.80762,3.5166 11.0483,3.21924 12.3813,3.21924 C16.8521,3.21924 20.3589,6.61328 20.687,10.9917 L14.9551,10.9917 Z M4.05518,11.6479 C4.05518,8.79736 5.40869,6.28516 7.521,4.76758 L10.4946,9.82275 C9.93066,10.397 9.67432,11.0225 9.67432,11.689 C9.67432,12.335 9.92041,12.9297 10.4844,13.5244 L7.45947,18.4873 C5.37793,16.9595 4.05518,14.478 4.05518,11.6479 Z M11.1304,11.6787 C11.1304,10.9814 11.7148,10.438 12.3813,10.438 C13.0684,10.438 13.6426,10.9814 13.6426,11.6787 C13.6426,12.3657 13.0684,12.9297 12.3813,12.9297 C11.7148,12.9297 11.1304,12.3657 11.1304,11.6787 Z M12.3813,20.0767 C11.0176,20.0767 9.74609,19.7588 8.62842,19.2051 L11.6431,14.2729 C11.9609,14.355 12.1763,14.3755 12.3608,14.3755 C13.54,14.3755 14.4937,13.6475 14.9551,12.3247 L20.6768,12.3247 C20.3486,16.6826 16.8521,20.0767 12.3813,20.0767 Z" id="Shape"></path>
        </g>
    </g>
</svg>