<?xml version="1.0" encoding="UTF-8"?>
<svg width="20px" height="20px" viewBox="0 0 20 20" version="1.1" xmlns="http://www.w3.org/2000/svg" xmlns:xlink="http://www.w3.org/1999/xlink">
    <title>item_select</title>
    <g id="Page-1" stroke="none" stroke-width="1" fill="none" fill-rule="evenodd">
        <g id="item_select" fill="#FF0000" fill-rule="nonzero">
            <path d="M2.29858,9.37027 L6.65649,9.37027 C8.13306,9.37027 8.86108,8.6525 8.86108,7.13492 L8.86108,2.83853 C8.86108,1.32095 8.13306,0.60318 6.65649,0.60318 L2.29858,0.60318 C0.822021,0.60318 0.0939941,1.32095 0.0939941,2.83853 L0.0939941,7.13492 C0.0939941,8.6525 0.822021,9.37027 2.29858,9.37027 Z M12.6755,9.37027 L17.0334,9.37027 C18.51,9.37027 19.238,8.6525 19.238,7.13492 L19.238,2.83853 C19.238,1.32095 18.51,0.60318 17.0334,0.60318 L12.6755,0.60318 C11.1887,0.60318 10.4709,1.32095 10.4709,2.83853 L10.4709,7.13492 C10.4709,8.6525 11.1887,9.37027 12.6755,9.37027 Z M2.30884,7.68863 C1.94995,7.68863 1.77563,7.50406 1.77563,7.13492 L1.77563,2.83853 C1.77563,2.46939 1.94995,2.28482 2.30884,2.28482 L6.63599,2.28482 C6.99487,2.28482 7.17944,2.46939 7.17944,2.83853 L7.17944,7.13492 C7.17944,7.50406 6.99487,7.68863 6.63599,7.68863 L2.30884,7.68863 Z M12.6858,7.68863 C12.3269,7.68863 12.1526,7.50406 12.1526,7.13492 L12.1526,2.83853 C12.1526,2.46939 12.3269,2.28482 12.6858,2.28482 L17.0232,2.28482 C17.3821,2.28482 17.5461,2.46939 17.5461,2.83853 L17.5461,7.13492 C17.5461,7.50406 17.3821,7.68863 17.0232,7.68863 L12.6858,7.68863 Z M2.29858,19.7472 L6.65649,19.7472 C8.13306,19.7472 8.86108,19.0294 8.86108,17.5016 L8.86108,13.2155 C8.86108,11.6979 8.13306,10.9801 6.65649,10.9801 L2.29858,10.9801 C0.822021,10.9801 0.0939941,11.6979 0.0939941,13.2155 L0.0939941,17.5016 C0.0939941,19.0294 0.822021,19.7472 2.29858,19.7472 Z M12.6755,19.7472 L17.0334,19.7472 C18.51,19.7472 19.238,19.0294 19.238,17.5016 L19.238,13.2155 C19.238,11.6979 18.51,10.9801 17.0334,10.9801 L12.6755,10.9801 C11.1887,10.9801 10.4709,11.6979 10.4709,13.2155 L10.4709,17.5016 C10.4709,19.0294 11.1887,19.7472 12.6755,19.7472 Z M2.30884,18.0553 C1.94995,18.0553 1.77563,17.881 1.77563,17.5119 L1.77563,13.2155 C1.77563,12.8463 1.94995,12.6618 2.30884,12.6618 L6.63599,12.6618 C6.99487,12.6618 7.17944,12.8463 7.17944,13.2155 L7.17944,17.5119 C7.17944,17.881 6.99487,18.0553 6.63599,18.0553 L2.30884,18.0553 Z M12.6858,18.0553 C12.3269,18.0553 12.1526,17.881 12.1526,17.5119 L12.1526,13.2155 C12.1526,12.8463 12.3269,12.6618 12.6858,12.6618 L17.0232,12.6618 C17.3821,12.6618 17.5461,12.8463 17.5461,13.2155 L17.5461,17.5119 C17.5461,17.881 17.3821,18.0553 17.0232,18.0553 L12.6858,18.0553 Z" id="Shape"></path>
        </g>
    </g>
</svg>